<svg xmlns="http://www.w3.org/2000/svg" viewBox="0 0 64 64" fill="none">
  <defs>
    <linearGradient id="fg" x1="0%" y1="0%" x2="100%" y2="100%">
      <stop offset="0%" style="stop-color:#8B5CF6"/>
      <stop offset="100%" style="stop-color:#3B82F6"/>
    </linearGradient>
  </defs>
  <path d="M14 8h12c0 0 0-4 5-4s5 4 5 4h12c3.3 0 6 2.7 6 6v12c0 0 4 0 4 5s-4 5-4 5v12c0 3.3-2.7 6-6 6H36c0 0 0 4-5 4s-5-4-5-4H14c-3.3 0-6-2.7-6-6V37c0 0-4 0-4-5s4-5 4-5V15c0-3.3 2.7-6 6-6z" fill="url(#fg)"/>
  <text x="24" y="40" font-family="monospace" font-size="16" font-weight="bold" fill="white">&lt;/&gt;</text>
</svg>
