<svg xmlns="http://www.w3.org/2000/svg" viewBox="0 0 64 64" fill="none">
  <defs>
    <linearGradient id="g1" x1="0%" y1="0%" x2="100%" y2="100%">
      <stop offset="0%" style="stop-color:#8B5CF6"/>
      <stop offset="50%" style="stop-color:#6366F1"/>
      <stop offset="100%" style="stop-color:#3B82F6"/>
    </linearGradient>
    <linearGradient id="g2" x1="0%" y1="0%" x2="100%" y2="100%">
      <stop offset="0%" style="stop-color:#C4B5FD"/>
      <stop offset="100%" style="stop-color:#93C5FD"/>
    </linearGradient>
  </defs>
  <!-- Puzzle piece -->
  <path d="M14 8h12c0 0 0-4 5-4s5 4 5 4h12c3.3 0 6 2.7 6 6v12c0 0 4 0 4 5s-4 5-4 5v12c0 3.3-2.7 6-6 6H36c0 0 0 4-5 4s-5-4-5-4H14c-3.3 0-6-2.7-6-6V37c0 0-4 0-4-5s4-5 4-5V15c0-3.3 2.7-6 6-6z" fill="url(#g1)"/>
  <!-- Inner detail -->
  <path d="M22 20h8c0 0 0-2.5 3-2.5s3 2.5 3 2.5h8c1.7 0 3 1.3 3 3v8c0 0 2.5 0 2.5 3s-2.5 3-2.5 3v8c0 1.7-1.3 3-3 3h-8c0 0 0 2.5-3 2.5s-3-2.5-3-2.5h-8c-1.7 0-3-1.3-3-3v-8c0 0-2.5 0-2.5-3s2.5-3 2.5-3v-8c0-1.7 1.3-3 3-3z" fill="url(#g2)" opacity="0.3"/>
  <!-- Code brackets -->
  <text x="24" y="40" font-family="monospace" font-size="16" font-weight="bold" fill="white" opacity="0.9">&lt;/&gt;</text>
</svg>
